#!OML:ASF F:\twosubjects\two\Thursday\Session 1\Rory.ASF
:FULLY-SPECIFIED
:DEGREES
219
root 9.61875 13.264 5.11757 -139.147 -85.373 114.372
lowerback 36.3244 1.7937 -2.88121
upperback 13.2975 -0.734808 -1.89612
thorax -3.37812 -1.18697 -0.193057
lowerneck -8.62627 -6.30829 -10.833
upperneck 33.9846 -14.8286 16.1187
head 15.5526 -6.589 6.18507
rclavicle 7.95139e-016 -1.17283e-014
rhumerus 2.97908 19.1898 -88.3664
rradius 47.803
rwrist 21.3886
rhand -34.8337 37.0579
rfingers 7.12502
rthumb -7.98424 7.22875
lclavicle 7.95139e-016 -1.17283e-014
lhumerus 5.91927 -28.6796 79.6738
lradius 45.7023
lwrist -25.5849
lhand -20.3395 33.508
lfingers 7.12502
lthumb 6.01205 63.4027
rfemur -45.9521 -6.96971 6.89545
rtibia 64.5911
rfoot 9.20876 -4.5497
rtoes 5.15679
lfemur -43.0683 4.05908 -12.2178
ltibia 59.8487
lfoot 10.0602 5.03914
ltoes 27.3029
220
root 9.61435 13.251 5.11668 -142.664 -85.7388 117.752
lowerback 36.1273 1.52651 -2.48047
upperback 13.4293 -0.912554 -1.78918
thorax -3.31107 -1.26733 -0.215252
lowerneck -8.82757 -6.23619 -11.0536
upperneck 34.2353 -14.7468 16.1557
head 15.736 -6.57423 6.27045
rclavicle 1.73937e-014 1.17283e-014
rhumerus 3.18169 18.9537 -89.1272
rradius 47.0745
rwrist 22.411
rhand -34.857 37.8566
rfingers 7.12502
rthumb -8.00673 8.0283
lclavicle 1.73937e-014 1.17283e-014
lhumerus 5.74242 -27.741 79.9704
lradius 45.5146
lwrist -26.9337
lhand -20.0538 32.5175
lfingers 7.12502
lthumb 6.28792 62.4041
rfemur -45.7241 -7.09571 7.39799
rtibia 64.5885
rfoot 9.17553 -3.97014
rtoes 1.87574
lfemur -42.9332 4.20382 -11.9187
ltibia 59.7458
lfoot 10.3885 5.03868
ltoes 25.7825
221
root 9.6136 13.2431 5.11692 -144.266 -86.0114 119.257
lowerback 35.925 1.27178 -2.31902
upperback 13.5407 -1.16169 -1.61928
thorax -3.1197 -1.39708 -0.0427304
lowerneck -9.11046 -6.27108 -11.3725
upperneck 34.3313 -14.6681 16.0343
head 15.8515 -6.57509 6.28795
rclavicle 1.12313e-014 8.34896e-015
rhumerus 3.3013 19.861 -88.6045
rradius 47.1692
rwrist 22.1668
rhand -34.8888 37.7738
rfingers 7.12502
rthumb -8.03741 7.94661
lclavicle 1.12313e-014 8.34896e-015
lhumerus 5.68448 -26.6588 80.2524
lradius 45.2554
lwrist -28.0505
lhand -20.2412 31.0067
lfingers 7.12502
lthumb 6.10699 60.8987
rfemur -45.4544 -7.23247 7.50866
rtibia 64.4543
rfoot 8.99701 -4.50386
rtoes 7.54806
lfemur -42.8849 4.26705 -11.8127
ltibia 59.7616
lfoot 10.4538 5.44417
ltoes 26.5697
222
root 9.64652 13.2752 5.10991 -149.22 -86.164 124.198
lowerback 35.7826 1.23725 -2.19334
upperback 13.5715 -1.14344 -1.41582
thorax -3.03618 -1.39323 0.0956336
lowerneck -9.31666 -6.28485 -11.4817
upperneck 34.3959 -14.6718 16.0542
head 15.9497 -6.57788 6.31609
rclavicle -2.98177e-015 2.18663e-015
rhumerus 3.52528 20.1131 -88.4031
rradius 46.9625
rwrist 22.3115
rhand -35.0791 37.2409
rfingers 7.12502
rthumb -8.22115 7.42086
lclavicle -2.98177e-015 2.18663e-015
lhumerus 5.69048 -26.3034 80.3664
lradius 44.8965
lwrist -28.5264
lhand -20.642 30.3295
lfingers 7.12502
lthumb 5.72002 60.2323
rfemur -45.3863 -6.39384 7.2011
rtibia 64.4952
rfoot 7.62706 -6.9416
rtoes 28.0687
lfemur -42.6897 4.25421 -11.3365
ltibia 59.4637
lfoot 10.1568 6.6004
ltoes 31.7376
223
root 9.62336 13.2342 5.10007 -154.688 -86.183 129.563
lowerback 35.7684 1.34213 -2.06829
upperback 13.5776 -0.964081 -1.28511
thorax -3.02595 -1.30731 0.10679
lowerneck -9.39604 -6.3384 -11.262
upperneck 34.4581 -14.824 16.0327
head 16.0119 -6.61391 6.23732
rclavicle -6.65929e-015 -1.63003e-014
rhumerus 3.69382 19.6821 -88.5945
rradius 46.5587
rwrist 22.8019
rhand -35.214 37.1232
rfingers 7.12502
rthumb -8.35128 7.30833
lclavicle -6.65929e-015 -1.63003e-014
lhumerus 5.68713 -26.5064 80.3649
lradius 44.7024
lwrist -28.5978
lhand -20.8061 30.554
lfingers 7.12502
lthumb 5.56155 60.461
rfemur -45.1788 -7.00829 8.66389
rtibia 64.1275
rfoot 9.55271 -3.60965
rtoes -3.54152
lfemur -42.7274 4.36746 -10.8108
ltibia 59.615
lfoot 9.93 7.27896
ltoes 35.2582
